<svg width="9" height="13" viewBox="0 0 9 13" fill="none" xmlns="http://www.w3.org/2000/svg">
<path d="M4.50001 12.668L1.07594 7.48181C0.614695 6.78319 0.337411 5.9571 0.274802 5.09502C0.212193 4.23295 0.366703 3.36855 0.721215 2.59755C1.07573 1.82656 1.61641 1.17907 2.28337 0.72681C2.95033 0.274546 3.71753 0.0351562 4.50001 0.0351562C5.28249 0.0351562 6.0497 0.274546 6.71666 0.72681C7.38362 1.17907 7.9243 1.82656 8.27881 2.59755C8.63332 3.36855 8.78783 4.23295 8.72522 5.09502C8.66261 5.9571 8.38533 6.78319 7.92409 7.48181L4.50001 12.668ZM4.50001 2.64073C4.1279 2.64073 3.76414 2.76269 3.45474 2.99118C3.14534 3.21968 2.90419 3.54445 2.76179 3.92443C2.61939 4.30441 2.58213 4.72253 2.65472 5.12591C2.72732 5.52929 2.90651 5.89982 3.16963 6.19064C3.43276 6.48146 3.768 6.67952 4.13296 6.75975C4.49793 6.83999 4.87622 6.79881 5.22001 6.64142C5.5638 6.48403 5.85764 6.21749 6.06437 5.87552C6.27111 5.53355 6.38145 5.1315 6.38145 4.72022C6.38145 4.1687 6.18323 3.63978 5.83039 3.2498C5.47755 2.85982 4.999 2.64073 4.50001 2.64073V2.64073Z" fill="#DFEEB6"/>
</svg>
