<svg width="24" height="16" viewBox="0 0 24 16" fill="none" xmlns="http://www.w3.org/2000/svg">
<path fill-rule="evenodd" clip-rule="evenodd" d="M23.6499 7.23482L16.515 0.315473C16.0797 -0.106574 15.3737 -0.106574 14.9383 0.315473C14.5029 0.738052 14.5029 1.42245 14.9383 1.8445L20.1701 6.91814H1.11491C0.499229 6.91814 2.67029e-05 7.40202 2.67029e-05 7.99934C2.67029e-05 8.59611 0.499229 9.08051 1.11491 9.08051H20.1701L14.9385 14.1542C14.5031 14.5757 14.5031 15.2606 14.9385 15.6827C15.1562 15.8934 15.4415 15.9988 15.7269 15.9988C16.0121 15.9988 16.2974 15.8934 16.5151 15.6827L23.6499 8.76331C24.0854 8.34181 24.0854 7.65686 23.6499 7.23482Z" fill="#BBC7D7"/>
</svg>
