<svg width="39" height="16" viewBox="0 0 39 16" fill="none" xmlns="http://www.w3.org/2000/svg">
<path fill-rule="evenodd" clip-rule="evenodd" d="M0.32658 7.2349L7.46154 0.315559C7.89686 -0.106488 8.60298 -0.106488 9.03819 0.315559C9.47363 0.738138 9.47363 1.42254 9.03819 1.84458L3.80639 6.91823H37.8617C38.4773 6.91823 38.9765 7.4021 38.9765 7.99942C38.9765 8.5962 38.4773 9.0806 37.8617 9.0806H3.80639L9.03808 14.1542C9.47352 14.5758 9.47352 15.2607 9.03808 15.6827C8.82041 15.8935 8.535 15.9989 8.24969 15.9989C7.96439 15.9989 7.67909 15.8935 7.46142 15.6827L0.32658 8.7634C-0.108864 8.3419 -0.108864 7.65695 0.32658 7.2349Z" fill="#0F2137"/>
</svg>
